<svg xmlns="http://www.w3.org/2000/svg" width="256" height="256"><path fill="#1976D2" fill-opacity=".016" fill-rule="evenodd" d="M0 128.004v128.004l128.25-.254 128.25-.254.254-127.75L257.008 0H0zm.485.496c0 70.4.119 99.053.265 63.672s.146-92.98 0-128S.485 58.1.485 128.5"/><path fill="#1976D2" fill-opacity=".299" fill-rule="evenodd" d="M0 128.004v128.004l128.25-.254 128.25-.254.254-127.75L257.008 0H0zm.485.496c0 70.4.119 99.053.265 63.672s.146-92.98 0-128S.485 58.1.485 128.5m50.934-50.425c-4.284 1.244-6.696 4.264-7.357 9.211-.492 3.688-.905 4.254-3.312 4.53-2.393.276-2.75.754-2.75 3.684s.357 3.408 2.75 3.684l2.75.316.277 14.75.276 14.75H52V99h4c3.905 0 4-.083 4-3.5s-.095-3.5-4-3.5c-3.569 0-4-.262-4-2.429 0-3.277 2.751-5.852 5.658-5.296 2.129.407 2.342.096 2.342-3.414 0-3.567-.209-3.854-2.75-3.771-1.513.05-4.137.493-5.831.985m15.616 1.859c-1.406 2.628-1.306 3.652.536 5.495 4.004 4.003 10.15-.345 7.497-5.303-1.494-2.791-6.577-2.913-8.033-.192M124 103v25h8V78h-8zm42.667-24.333c-.367.366-.667 4.43-.667 9.03v8.363l-3.084-2.28c-4.36-3.224-12.172-3.167-16.783.121-9.777 6.974-9.371 25.788.706 32.636 5.377 3.654 12.321 3.457 16.238-.46l2.923-2.923v2.423c0 2.205.405 2.423 4.5 2.423h4.5V78h-3.833c-2.109 0-4.134.3-4.5.667M92.5 92.821c-4.777 2.265-6.901 4.5-8.962 9.433-6.663 15.947 8.285 31.861 23.826 25.367 3.128-1.307 7.636-5.886 7.636-7.756 0-1.431-7.355-.911-9.441.667-1.068.807-3.676 1.468-5.796 1.468-4.599 0-8.763-3.542-8.763-7.455V112h25v-4.852c0-5.264-2.475-9.965-7.014-13.325-3.815-2.824-11.639-3.299-16.486-1.002M67 110v18h8V92h-8zm26.455-9.545c-1.35 1.35-2.455 3.375-2.455 4.5 0 1.9.604 2.045 8.5 2.045s8.5-.145 8.5-2.045c0-3.354-4.402-6.955-8.5-6.955-2.479 0-4.351.76-6.045 2.455m59.847-1.481c-4.575 1.921-6.588 10.038-4.194 16.907 1.138 3.263 5.229 6.119 8.766 6.119 3.213 0 7.986-4.738 8.721-8.657.791-4.213-.863-10.37-3.402-12.668-2.306-2.088-7.034-2.901-9.891-1.701m-50.511 41.014c-8.388 2.529-13.381 10.572-12.512 20.156.648 7.138 3.477 11.789 9.094 14.946 4.757 2.673 12.757 2.929 17.349.554 3.468-1.793 7.632-6.784 8.764-10.503 1.181-3.879.693-12.897-.859-15.867-4.097-7.846-13.437-11.817-21.836-9.286m46.209-.284c-.825.3-2.738 1.699-4.25 3.108l-2.75 2.562v-2.687c0-2.518-.283-2.687-4.5-2.687H133v51h9v-19.178l3.077 2.589c4.141 3.485 12.076 3.643 16.938.339 8.388-5.7 10.369-20.907 3.81-29.245-3.673-4.67-12.023-7.549-16.825-5.801m34.741.668c-5.143 1.913-6.545 3.259-7.681 7.372-.723 2.619-.608 4.402.447 6.927 1.606 3.843 5.183 5.732 12.993 6.862 6.634.959 8.5 2.049 8.5 4.967 0 5.473-11.197 6.112-14.32.818-1.228-2.082-8.68-1.444-8.68.743 0 2.739 3.786 6.713 7.591 7.969 4.213 1.39 13.039 1.441 16.578.096 3.456-1.314 7.831-6.762 7.831-9.752 0-3.767-2.586-7.96-5.703-9.248-1.538-.635-5.432-1.583-8.652-2.105-6.468-1.05-8.645-2.336-8.645-5.108 0-4.042 9.287-5.463 12.5-1.913 1.212 1.339 3.08 2 5.655 2 4.366 0 4.391-.043 2.328-4.033-2.88-5.569-13.275-8.373-20.742-5.595m-79.499 7.13c-3.846 1.662-5.242 4.763-5.242 11.64 0 4.206.47 5.482 2.923 7.935 7.954 7.954 18.322-1.028 15.08-13.065-1.642-6.099-7.176-8.923-12.761-6.51m43.179-.106c-4.033 1.786-5.812 6.187-5.176 12.807.386 4.017 1.101 5.697 3.182 7.488 5.702 4.905 13.658 1.706 15.118-6.079 1.936-10.322-4.985-17.82-13.124-14.216"/><path fill="#1976D2" fill-opacity=".232" fill-rule="evenodd" d="M0 128.004v128.004l128.25-.254 128.25-.254.254-127.75L257.008 0H0zm.485.496c0 70.4.119 99.053.265 63.672s.146-92.98 0-128S.485 58.1.485 128.5m48.728-50.018C45.731 80.021 43 84.85 43 89.468 43 91.615 42.543 92 40 92c-2.762 0-3 .278-3 3.5s.238 3.5 3 3.5h3v30h8.947l.276-14.75.277-14.75 3.75-.31c3.546-.294 3.75-.498 3.75-3.75 0-3.271-.174-3.44-3.531-3.44-3.982 0-5.218-1.732-3.511-4.922C53.761 85.577 55.05 85 57.596 85c3.462 0 3.519-.067 3.214-3.75-.298-3.611-.459-3.759-4.31-3.985-2.2-.13-5.479.418-7.287 1.217m19.01.075c-3.009 2.107-2.875 5.969.277 8.035 2.316 1.517 2.684 1.517 5 0 2.972-1.948 3.279-5.577.671-7.937-2.266-2.051-3.141-2.065-5.948-.098m55.01 24.693.267 25.25h9l.267-25.25.267-25.25h-10.068zm42.752-16c-.009 5.088-.346 8.774-.75 8.192-3.353-4.828-12.719-5.953-18.245-2.192-5.365 3.652-7.314 7.077-7.793 13.702-.621 8.581.43 12.63 4.425 17.052 5.941 6.576 14.215 7.657 19.7 2.574l2.565-2.378.307 2.15c.248 1.74 1.088 2.207 4.404 2.45l4.098.3.646-8.3c.812-10.435.831-37.553.028-40.55-.509-1.899-1.286-2.25-4.987-2.25H166zm-75.648 6.207c-11.168 6.848-11.32 25.893-.266 33.209 4.901 3.243 13.465 3.676 18.723.947 2.905-1.508 7.192-6.783 7.202-8.863.009-1.659-8.248-.697-10.723 1.25-1.399 1.1-3.807 2-5.352 2-3.185 0-7.445-3.409-8.398-6.72-.633-2.201-.53-2.222 12.169-2.5l12.808-.28-.123-5.054c-.244-10.049-5.719-15.654-15.834-16.21-5.08-.28-6.707.074-10.206 2.221m-24.11 16.793.273 18.25h9l.273-18.25.272-18.25h-10.09zm28.531-10.274c-1.382 1.087-2.75 2.887-3.041 4-.501 1.912-.07 2.024 7.783 2.024s8.284-.112 7.783-2.024C106.582 101.295 102.291 98 99.5 98c-1.227 0-3.361.889-4.742 1.976m56.416 1.338c-1.738 1.85-2.174 3.53-2.174 8.366 0 7.65 2.428 11.32 7.491 11.32 4.722 0 6.372-.835 8.046-4.072 2.393-4.627 1.889-11.268-1.126-14.851-3.328-3.955-8.911-4.303-12.237-.763M100.5 140.417c-3.727 1.664-8.031 6.179-9.436 9.898-1.37 3.626-1.369 12.75.003 16.37 3.259 8.604 14.75 13.593 23.618 10.255 4.205-1.582 10.208-7.894 11.322-11.905 2.041-7.348.502-15.603-3.795-20.355-4.683-5.178-15.085-7.221-21.712-4.263m44.667 1.096c-2.725 2.293-2.94 2.337-2.46.5.477-1.824.045-2.013-4.59-2.013H133v51h9v-17.94l3.64 2.47c8.365 5.677 19.809.73 23.387-10.111 1.817-5.508.821-14.557-2.067-18.772-5.202-7.592-15.882-10.108-21.793-5.134m36.2-.595c-7.248 4.42-8.49 11.159-3.057 16.592 2.505 2.505 4.512 3.473 8.25 3.979 6.967.943 9.638 1.878 10.852 3.802 2.941 4.662-8.107 7.223-12.67 2.936-1.684-1.582-3.603-2.227-6.624-2.227-3.945 0-4.204.163-3.573 2.25 2.521 8.344 15.216 12.312 25.072 7.836 5.112-2.321 7.383-5.45 7.383-10.174 0-6.647-4.129-9.801-15-11.458-8.059-1.229-10.208-3.794-5.777-6.897 3.328-2.332 7.514-1.944 10.189.943 2.953 3.186 9.588 3.625 9.588.635 0-2.75-3.864-7.18-7.636-8.756-4.836-2.021-13.236-1.755-16.997.539m-79.061 8.495c-2.434 2.094-2.806 3.134-2.806 7.849 0 6.433 1.753 10.186 5.48 11.73 6.451 2.672 11.201-1.34 11.826-9.989.4-5.53.227-6.124-2.612-8.963-3.784-3.784-7.961-4.005-11.888-.627m43.215-.025c-4.937 4.937-4.069 16.243 1.466 19.105 4.282 2.214 6.815 1.859 10.09-1.416 2.594-2.594 2.923-3.612 2.923-9.046 0-5.167-.383-6.505-2.455-8.576-3.308-3.309-8.752-3.339-12.024-.067"/><path fill="#1976D2" fill-opacity=".178" fill-rule="evenodd" d="M0 128.004v128.004l128.25-.254 128.25-.254.254-127.75L257.008 0H0zm.485.496c0 70.4.119 99.053.265 63.672s.146-92.98 0-128S.485 58.1.485 128.5m194.1-67.293C184.363 71.771 176 79.871 176 79.207c0-.782-1.762-1.207-5-1.207h-5v6.941c0 3.818-.441 7.213-.98 7.547s-2.939-.06-5.334-.873c-7.779-2.641-15.178.432-19.117 7.942-1.573 2.998-2.069 5.795-2.069 11.67 0 7.096-.225 7.951-2.75 10.477l-2.75 2.751V78h-10v51l2.75.015c1.513.009 2.3.346 1.75.75s-3.098 3.036-5.662 5.848c-3.261 3.576-5.065 4.859-6 4.266-.736-.467-3.998-.855-7.25-.864-4.457-.011-6.921.576-10.011 2.387-7.45 4.366-11.212 14.918-8.305 23.293 1.5 4.321 1.029 5.305-2.539 5.305-.607 0-8.874-7.725-18.372-17.167-20.761-20.639-20.406-20.505-29.497-11.099-4.362 4.513-5.864 6.797-5.864 8.918 0 2.389 3.945 6.798 24.367 27.235 13.401 13.411 25.115 24.803 26.031 25.316 3.882 2.173 8.151-1.072 27.939-21.239C123.111 170.984 132.168 162 132.463 162s.537 6.525.537 14.5V191h10v-17.06l2.922 2.16c3.796 2.807 12.244 2.342 16.834-.926 7.029-5.005 9.75-18.344 5.457-26.755-2.497-4.893-5.085-7.267-9.622-8.826l-3.541-1.218 4.946-4.871c4.83-4.757 5.075-4.865 10.475-4.615l5.529.256v-11.351l26.75-27.488c14.713-15.118 27.337-28.591 28.054-29.939 1.869-3.514.94-5.336-6.242-12.232-4.349-4.176-7.188-6.135-8.891-6.135-1.937 0-6.695 4.334-21.086 19.207M48.314 78.95C44.498 81.277 43 83.809 43 87.934c0 2.74-.319 3.066-3 3.066-2.889 0-3 .167-3 4.5s.111 4.5 3 4.5h3v30.11l4.75-.305 4.75-.305.277-14.75.276-14.75h3.474c3.45 0 3.473-.03 3.473-4.5 0-4.476-.019-4.5-3.5-4.5-3.025 0-3.5-.325-3.5-2.393C53 86.064 54.647 85 58.582 85 60.736 85 61 84.564 61 81v-4l-4.75.004c-2.938.002-5.966.745-7.936 1.946m19.436-.87C64.11 80.2 66.773 88 71.138 88c2.695 0 5.112-2.6 5.112-5.5 0-4.494-4.424-6.794-8.5-4.42M96 90.969c-1.925.364-4.494 1.2-5.709 1.859-6.478 3.515-10.582 14.92-8.325 23.136 3.646 13.273 20.872 18.433 30.244 9.061 5.321-5.321 5.053-7.025-1.103-7.025-3.281 0-5.071.463-5.432 1.406-.817 2.127-6.182 2.942-9.324 1.416-1.496-.727-3.314-2.785-4.039-4.572L90.994 113H117v-4.435c0-12.039-9.272-19.808-21-17.596M66 110v19h10V91H66zm27.557-8.777C90.654 105.367 91.442 106 99.5 106s8.846-.633 5.943-4.777C104.237 99.5 102.899 99 99.5 99s-4.737.5-5.943 2.223m57.898.232c-1.35 1.35-2.455 3.45-2.455 4.666s.113 2.018.25 1.78 2.029-2.337 4.203-4.666c2.979-3.191 3.522-4.235 2.204-4.235-.961 0-2.852 1.105-4.202 2.455m29.112 39.491c-3.689 2.433-5.486 5.628-5.532 9.839-.071 6.582 5.001 10.247 16.212 11.715 5.532.724 7.795 3.315 5.18 5.931-2.283 2.283-8.965 2.031-11.427-.431-1.407-1.407-3.333-2-6.5-2-4.904 0-5.268.615-2.979 5.04 4.099 7.927 20.921 9.565 28.2 2.746 3.644-3.413 4.706-8.085 2.767-12.171-1.927-4.06-5.895-6.202-13.308-7.185-2.912-.387-6.282-1.513-7.488-2.502-2.082-1.709-2.105-1.887-.456-3.563 2.53-2.573 8.564-2.33 10.803.435 1.31 1.618 2.864 2.2 5.871 2.2 3.628 0 4.09-.266 4.09-2.354 0-2.802-3.887-7.272-7.527-8.656-4.571-1.738-14.634-1.201-17.906.956m-77.306 7.583c-1.874 1.313-4.237 6.832-4.255 9.937-.003.531 2.469-1.479 5.494-4.466s5.5-5.785 5.5-6.216c0-1.349-4.452-.856-6.739.745m44.054-.522c-3.129 1.261-4.315 4.09-4.315 10.292 0 8.854 4.934 13.03 11.923 10.091 3.599-1.513 5.077-4.724 5.077-11.032 0-3.653-.556-5.068-2.923-7.435-2.969-2.969-5.779-3.521-9.762-1.916"/></svg>